<?xml version="1.0" encoding="UTF-8"?>
<svg xmlns="http://www.w3.org/2000/svg" xmlns:xlink="http://www.w3.org/1999/xlink" viewBox="0 0 697.97 124.62">
  <defs>
    <style>.cls-1{isolation:isolate;}.cls-2{fill:url(#Sfumatura_senza_nome_35);}.cls-3{fill:url(#Sfumatura_senza_nome_35-2);}.cls-4{fill:url(#Sfumatura_senza_nome_35-3);}.cls-5,.cls-6{mix-blend-mode:multiply;}.cls-5{opacity:0.44;fill:url(#Sfumatura_senza_nome_41);}.cls-6{fill:url(#Sfumatura_senza_nome_41-2);}.cls-7{fill:url(#Sfumatura_senza_nome_44);}.cls-8{fill:#6754e2;}</style>
    <linearGradient id="Sfumatura_senza_nome_35" x1="118.77" y1="42.67" x2="127.18" y2="122.77" gradientUnits="userSpaceOnUse">
      <stop offset="0" stop-color="#6754e2"></stop>
      <stop offset="0.53" stop-color="#817add"></stop>
      <stop offset="1" stop-color="#6754e2"></stop>
    </linearGradient>
    <linearGradient id="Sfumatura_senza_nome_35-2" x1="59.96" y1="22.26" x2="137.46" y2="22.26" xlink:href="#Sfumatura_senza_nome_35"></linearGradient>
    <linearGradient id="Sfumatura_senza_nome_35-3" x1="24.02" y1="37.01" x2="67.54" y2="115.53" xlink:href="#Sfumatura_senza_nome_35"></linearGradient>
    <linearGradient id="Sfumatura_senza_nome_41" x1="79.13" y1="43.93" x2="9.65" y2="106.49" gradientUnits="userSpaceOnUse">
      <stop offset="0" stop-color="#1b195e"></stop>
      <stop offset="1" stop-color="#fff" stop-opacity="0"></stop>
    </linearGradient>
    <linearGradient id="Sfumatura_senza_nome_41-2" x1="109.67" y1="109.8" x2="149.95" y2="109.8" xlink:href="#Sfumatura_senza_nome_41"></linearGradient>
    <linearGradient id="Sfumatura_senza_nome_44" x1="95.09" y1="56.04" x2="97.48" y2="124.41" gradientUnits="userSpaceOnUse">
      <stop offset="0" stop-color="#6754e2"></stop>
      <stop offset="0.54" stop-color="#6a59e1"></stop>
      <stop offset="1" stop-color="#817add"></stop>
    </linearGradient>
  </defs>
  <g class="cls-1">
    <g id="Layer_2" data-name="Layer 2">
      <g id="Livello_1" data-name="Livello 1">
        <path class="cls-2" d="M114,43.4a40.06,40.06,0,0,0-25.61,9.2,13.41,13.41,0,0,1,7.5,12.06v.18A28.31,28.31,0,0,1,114,57.64a26,26,0,1,1-3.19,51.85l-1,4.88-.14,9.33a41.28,41.28,0,0,0,4.33.23,40.27,40.27,0,1,0,0-80.53Z"></path>
        <path class="cls-3" d="M74.48,33.87a24,24,0,0,1,47.26,5,45.14,45.14,0,0,1,15.41,5.68,38.26,38.26,0,0,0,.31-4.82A39.7,39.7,0,0,0,60,27.56,51.74,51.74,0,0,1,74.48,33.87Z"></path>
        <path class="cls-4" d="M45.47,31.09a46.77,46.77,0,0,0-3,93.32,20.77,20.77,0,0,0,3,.21c11.65,0,22.35-9.51,22.35-21.21,0-11.18-9.11-19.75-20.34-21.11,0,0-6.4-1-6.7-6.78-.2-3.78,2.84-5.79,6.52-5.74a7.13,7.13,0,0,1,2.5.5,5.33,5.33,0,0,1,2,1.44,6.52,6.52,0,0,0,11.43-4.3,8.18,8.18,0,0,0-2.71-5.48,19.63,19.63,0,0,0-15.9-5,19.28,19.28,0,0,0-12.9,30.45A27.66,27.66,0,0,0,45.4,95.57c10.61,2.3,8.73,12.62-.18,12.1C30.8,106.83,16.9,94.19,17,77.66a29.76,29.76,0,0,1,53.2-18.15,13.37,13.37,0,0,1,15.22-7.95A46.76,46.76,0,0,0,45.47,31.09Z"></path>
        <path class="cls-5" d="M45.47,31.09a46.77,46.77,0,0,0-3,93.32,20.77,20.77,0,0,0,3,.21c11.65,0,22.35-9.51,22.35-21.21,0-11.18-9.11-19.75-20.34-21.11,0,0-6.4-1-6.7-6.78-.2-3.78,2.84-5.79,6.52-5.74a7.13,7.13,0,0,1,2.5.5,5.33,5.33,0,0,1,2,1.44,6.52,6.52,0,0,0,11.43-4.3,8.18,8.18,0,0,0-2.71-5.48,19.63,19.63,0,0,0-15.9-5,19.28,19.28,0,0,0-12.9,30.45A27.66,27.66,0,0,0,45.4,95.57c10.61,2.3,8.73,12.62-.18,12.1C30.8,106.83,16.9,94.19,17,77.66a29.76,29.76,0,0,1,53.2-18.15,13.37,13.37,0,0,1,15.22-7.95A46.76,46.76,0,0,0,45.47,31.09Z"></path>
        <path class="cls-6" d="M137.08,95.67a26,26,0,0,1-26.27,13.82l-1,4.88-.14,9.33a41.28,41.28,0,0,0,4.33.23A40.26,40.26,0,0,0,150,101.82Z"></path>
        <path class="cls-7" d="M119.21,95.17v20.66a8.07,8.07,0,1,1-16.14,0V95.17a6.21,6.21,0,1,0-12.41,0v20.66a8.13,8.13,0,0,1-16.25,0V64.69a8.13,8.13,0,1,1,16.25,0V73.5a24.83,24.83,0,0,1,6.15-.82A22.4,22.4,0,0,1,119.21,95.17Z"></path>
        <path class="cls-8" d="M184.21,85.05V83.37c0-2.83,1.68-4.12,4.52-3.59,11.28,2.08,24.08,2.08,24.08-5.13,0-2.66-1.6-4.69-7.79-7.22L199.48,65c-11-4.73-14.91-9.69-14.91-17,0-14.6,15.93-18.28,33.9-14.12A4.2,4.2,0,0,1,222,38.44v1.81c0,2.79-1.68,4.16-4.51,3.68C206.87,42.16,197,42,197,47.82c0,2.57,1.69,4.65,7.31,6.91l5.13,2.17c11.11,4.69,15.85,9.47,15.85,17.75C225.29,91,206,94,187.71,89.57A4.2,4.2,0,0,1,184.21,85.05Z"></path>
        <path class="cls-8" d="M268.45,47.16h4.16c2.61,0,4.07,1.46,4.07,4.07V71c0,15.9-8,20.5-21.78,20.5s-21.78-4.6-21.78-20.5V51.23c0-2.61,1.47-4.07,4.08-4.07h4.16c2.61,0,4.07,1.46,4.07,4.07V71.15c0,7.79,2.83,10,9.47,10s9.48-2.17,9.48-10V51.23C264.38,48.62,265.84,47.16,268.45,47.16Z"></path>
        <path class="cls-8" d="M329.09,68.94c0,16.86-9.2,22.53-24.74,22.53-2,0-4-.09-6.15-.27v13.11c0,2.61-1.46,4.07-4.08,4.07H290c-2.61,0-4.07-1.46-4.07-4.07V60.26c0-9.91,5.53-13.9,18.46-13.9C319.89,46.36,329.09,52.07,329.09,68.94Zm-12.3,0c0-9.17-3.45-12.22-11.6-12.22-6.28,0-7,1.77-7,5.93v18a59.88,59.88,0,0,0,6.9.49C313.34,81.11,316.79,78.1,316.79,68.94Z"></path>
        <path class="cls-8" d="M380.58,68.94c0,16.86-9.21,22.53-24.75,22.53-1.95,0-4-.09-6.15-.27v13.11c0,2.61-1.46,4.07-4.07,4.07h-4.16c-2.62,0-4.08-1.46-4.08-4.07V60.26c0-9.91,5.54-13.9,18.46-13.9C371.37,46.36,380.58,52.07,380.58,68.94Zm-12.31,0c0-9.17-3.45-12.22-11.6-12.22-6.28,0-7,1.77-7,5.93v18a59.88,59.88,0,0,0,6.9.49C364.82,81.11,368.27,78.1,368.27,68.94Z"></path>
        <path class="cls-8" d="M387.93,68.94c0-14.39,7.92-22.58,22.39-22.58s22.4,8.19,22.4,22.58-7.92,22.53-22.4,22.53S387.93,83.28,387.93,68.94Zm32.31,0c0-8.59-3.28-12.22-9.92-12.22s-9.91,3.63-9.91,12.22,3.27,12.17,9.91,12.17S420.24,77.44,420.24,68.94Z"></path>
        <path class="cls-8" d="M467.69,50.79v2.57c0,2.61-1.55,4.07-4.47,4.11-9.29.14-9.69.93-9.69,4.25V86.6c0,2.61-1.46,4.07-4.07,4.07h-4.39c-2.61,0-4.07-1.46-4.07-4.07V60c0-10.14,3.63-12.88,22.36-13.19C466.19,46.72,467.69,48.13,467.69,50.79Z"></path>
        <path class="cls-8" d="M498.68,57.25h-12V74.6c0,4.52,2,6.42,6.86,6.42,2.35,0,3.85-.48,5.4-.48,2.75,0,3.81,1.06,3.81,3.23V86c0,2.26-1.06,3.89-3.28,4.34-14.07,3.36-25.32-.22-25.32-15.72V41.14c0-2.61,1.46-4.07,4.07-4.07h4.39c2.61,0,4.07,1.46,4.07,4.07v6h12c2.61,0,4.07,1.46,4.07,4.07v2C502.75,55.79,501.29,57.25,498.68,57.25Z"></path>
        <path class="cls-8" d="M553.92,33.13h4.34c2.61,0,4.07,1.46,4.07,4.07V86.6c0,2.61-1.46,4.07-4.07,4.07h-4.34c-2.61,0-4.07-1.46-4.07-4.07V66.81h-26.6V86.6c0,2.61-1.46,4.07-4.07,4.07h-4.34c-2.61,0-4.07-1.46-4.07-4.07V37.2c0-2.61,1.46-4.07,4.07-4.07h4.34c2.61,0,4.07,1.46,4.07,4.07V55.61h26.6V37.2C549.85,34.59,551.31,33.13,553.92,33.13Z"></path>
        <path class="cls-8" d="M572.21,68.94c0-14.39,7.92-22.58,22.4-22.58S617,54.55,617,68.94s-7.92,22.53-22.39,22.53S572.21,83.28,572.21,68.94Zm32.31,0c0-8.59-3.27-12.22-9.91-12.22s-9.92,3.63-9.92,12.22,3.28,12.17,9.92,12.17S604.52,77.44,604.52,68.94Z"></path>
        <path class="cls-8" d="M624.4,85.09V83.85c0-2.83,1.68-4.16,4.56-3.62,10.31,2,20.89,2.61,20.89-2.31,0-1.9-1.37-3-4.34-3.76l-9.29-2.39c-8.68-2.21-12.4-6.55-12.4-12.53,0-12.44,16.07-15.09,31.61-11.24a4.23,4.23,0,0,1,3.49,4.56v1.06c0,2.88-1.68,4.12-4.55,3.5-8.59-1.86-18.77-2.3-18.77,1.77,0,1.46,1.15,2.48,3.14,3l10,2.57c8.67,2.22,12.88,6.47,12.88,13.19,0,13.68-17.93,16.2-33.73,12A4.26,4.26,0,0,1,624.4,85.09Z"></path>
        <path class="cls-8" d="M693.9,57.25h-12V74.6c0,4.52,2,6.42,6.86,6.42,2.34,0,3.85-.48,5.4-.48,2.74,0,3.8,1.06,3.8,3.23V86c0,2.26-1.06,3.89-3.27,4.34-14.08,3.36-25.32-.22-25.32-15.72V41.14c0-2.61,1.46-4.07,4.07-4.07h4.38c2.61,0,4.08,1.46,4.08,4.07v6h12c2.61,0,4.07,1.46,4.07,4.07v2C698,55.79,696.51,57.25,693.9,57.25Z"></path>
      </g>
    </g>
  </g>
</svg>
